<svg width="32" height="34" viewBox="0 0 32 34" fill="none" xmlns="http://www.w3.org/2000/svg">
<g filter="url(#filter0_d_7829_169)">
<rect width="32" height="32" rx="16" fill="white"/>
<rect x="0.5" y="0.5" width="31" height="31" rx="15.5" stroke="#D9D9D9"/>
<path d="M12.9201 21H11.6275L15.3661 10.8182H16.6388L20.3775 21H19.0849L16.0423 12.429H15.9627L12.9201 21ZM13.3974 17.0227H18.6076V18.1165H13.3974V17.0227Z" fill="#262626"/>
<g clip-path="url(#clip0_7829_169)">
<rect width="14" height="14" transform="translate(9 9.00464)" fill="white"/>
<g clip-path="url(#clip1_7829_169)">
<path d="M22.4502 17.7835L21.4268 16.9085C21.4752 16.6117 21.5002 16.3085 21.5002 16.0054C21.5002 15.7023 21.4752 15.3992 21.4268 15.1023L22.4502 14.2273C22.5274 14.1612 22.5826 14.0732 22.6086 13.9749C22.6346 13.8767 22.63 13.7729 22.5955 13.6773L22.5814 13.6367C22.2997 12.8492 21.8778 12.1192 21.3361 11.482L21.308 11.4492C21.2423 11.3719 21.1547 11.3164 21.0568 11.2899C20.9589 11.2634 20.8553 11.2672 20.7596 11.3007L19.4893 11.7523C19.0205 11.3679 18.4971 11.0648 17.9314 10.8523L17.6861 9.52417C17.6676 9.42424 17.6192 9.3323 17.5471 9.26057C17.4751 9.18885 17.383 9.14073 17.283 9.12261L17.2408 9.11479C16.4268 8.96792 15.5705 8.96792 14.7564 9.11479L14.7143 9.12261C14.6143 9.14073 14.5221 9.18885 14.4501 9.26057C14.3781 9.3323 14.3296 9.42424 14.3111 9.52417L14.0643 10.8585C13.5031 11.0711 12.9806 11.3741 12.5174 11.7554L11.2377 11.3007C11.142 11.2669 11.0383 11.263 10.9403 11.2895C10.8424 11.316 10.7548 11.3717 10.6893 11.4492L10.6611 11.482C10.1201 12.1197 9.69829 12.8495 9.41582 13.6367L9.40176 13.6773C9.33145 13.8726 9.38926 14.0914 9.54707 14.2273L10.583 15.1117C10.5346 15.4054 10.5111 15.7054 10.5111 16.0039C10.5111 16.3039 10.5346 16.6039 10.583 16.896L9.54707 17.7804C9.46988 17.8465 9.41463 17.9345 9.38867 18.0328C9.36272 18.131 9.36728 18.2348 9.40176 18.3304L9.41582 18.371C9.69864 19.1585 10.1174 19.8851 10.6611 20.5257L10.6893 20.5585C10.755 20.6358 10.8425 20.6913 10.9405 20.7178C11.0384 20.7443 11.142 20.7406 11.2377 20.707L12.5174 20.2523C12.983 20.6351 13.5033 20.9382 14.0643 21.1492L14.3111 22.4835C14.3296 22.5835 14.3781 22.6754 14.4501 22.7471C14.5221 22.8189 14.6143 22.867 14.7143 22.8851L14.7564 22.8929C15.578 23.0406 16.4193 23.0406 17.2408 22.8929L17.283 22.8851C17.383 22.867 17.4751 22.8189 17.5471 22.7471C17.6192 22.6754 17.6676 22.5835 17.6861 22.4835L17.9314 21.1554C18.4968 20.9435 19.0232 20.6394 19.4893 20.2554L20.7596 20.707C20.8553 20.7408 20.959 20.7447 21.0569 20.7182C21.1549 20.6917 21.2425 20.636 21.308 20.5585L21.3361 20.5257C21.8799 19.8835 22.2986 19.1585 22.5814 18.371L22.5955 18.3304C22.6658 18.1382 22.608 17.9195 22.4502 17.7835ZM20.3174 15.2867C20.3564 15.5226 20.3768 15.7648 20.3768 16.007C20.3768 16.2492 20.3564 16.4914 20.3174 16.7273L20.2143 17.3539L21.3814 18.3523C21.2045 18.7599 20.9812 19.1458 20.7158 19.5023L19.2658 18.9882L18.7752 19.3914C18.4018 19.6976 17.9861 19.9382 17.5361 20.107L16.9408 20.3304L16.6611 21.846C16.2198 21.896 15.7743 21.896 15.333 21.846L15.0533 20.3273L14.4627 20.1007C14.0174 19.932 13.6033 19.6914 13.233 19.3867L12.7424 18.982L11.283 19.5007C11.0174 19.1429 10.7955 18.757 10.6174 18.3507L11.7971 17.3429L11.6955 16.7179C11.658 16.4851 11.6377 16.2445 11.6377 16.007C11.6377 15.7679 11.6564 15.5289 11.6955 15.296L11.7971 14.671L10.6174 13.6632C10.7939 13.2554 11.0174 12.871 11.283 12.5132L12.7424 13.032L13.233 12.6273C13.6033 12.3226 14.0174 12.082 14.4627 11.9132L15.0549 11.6898L15.3346 10.171C15.7736 10.121 16.2221 10.121 16.6627 10.171L16.9424 11.6867L17.5377 11.9101C17.9861 12.0789 18.4033 12.3195 18.7768 12.6257L19.2674 13.0289L20.7174 12.5148C20.983 12.8726 21.2049 13.2585 21.383 13.6648L20.2158 14.6632L20.3174 15.2867ZM16.0002 13.1007C14.4814 13.1007 13.2502 14.332 13.2502 15.8507C13.2502 17.3695 14.4814 18.6007 16.0002 18.6007C17.5189 18.6007 18.7502 17.3695 18.7502 15.8507C18.7502 14.332 17.5189 13.1007 16.0002 13.1007ZM17.2377 17.0882C17.0754 17.251 16.8825 17.3801 16.6701 17.468C16.4577 17.556 16.2301 17.6011 16.0002 17.6007C15.533 17.6007 15.0939 17.4179 14.7627 17.0882C14.5999 16.9259 14.4708 16.733 14.3829 16.5207C14.2949 16.3083 14.2498 16.0806 14.2502 15.8507C14.2502 15.3835 14.433 14.9445 14.7627 14.6132C15.0939 14.282 15.533 14.1007 16.0002 14.1007C16.4674 14.1007 16.9064 14.282 17.2377 14.6132C17.4005 14.7755 17.5296 14.9684 17.6175 15.1808C17.7055 15.3932 17.7506 15.6209 17.7502 15.8507C17.7502 16.3179 17.5674 16.757 17.2377 17.0882Z" fill="#262626"/>
</g>
</g>
</g>
<defs>
<filter id="filter0_d_7829_169" x="0" y="0" width="32" height="34" filterUnits="userSpaceOnUse" color-interpolation-filters="sRGB">
<feFlood flood-opacity="0" result="BackgroundImageFix"/>
<feColorMatrix in="SourceAlpha" type="matrix" values="0 0 0 0 0 0 0 0 0 0 0 0 0 0 0 0 0 0 127 0" result="hardAlpha"/>
<feOffset dy="2"/>
<feColorMatrix type="matrix" values="0 0 0 0 0 0 0 0 0 0 0 0 0 0 0 0 0 0 0.043 0"/>
<feBlend mode="normal" in2="BackgroundImageFix" result="effect1_dropShadow_7829_169"/>
<feBlend mode="normal" in="SourceGraphic" in2="effect1_dropShadow_7829_169" result="shape"/>
</filter>
<clipPath id="clip0_7829_169">
<rect width="14" height="14" fill="white" transform="translate(9 9.00464)"/>
</clipPath>
<clipPath id="clip1_7829_169">
<rect width="14" height="14" fill="white" transform="translate(9 9.00464)"/>
</clipPath>
</defs>
</svg>
